# xmcd CD database file
#
# Track frame offsets:
#	150
#	15368
#	32508
#	52085
#	68378
#	82310
#	101256
#	114902
#	130547
#	146683
#	166985
#	185339
#	210061
#	225418
#
# Disc length: 3186 seconds
#
# Revision: 1
# Processed by: cddbd v1.4PL0 Copyright (c) Steve Scherf et al.
# Submitted via: CDex 1.40Beta8
#
DISCID=a10c700e
DTITLE=Flemming Bamse Jørgensen - Always On My Mind
DYEAR=1900
DGENRE=
TTITLE0=Brown Eyed Girl
TTITLE1=To Love Somebody
TTITLE2=Always On My Mind
TTITLE3=Woman
TTITLE4=My Girl
TTITLE5=Welcome
TTITLE6=If Not For You
TTITLE7=A Wedding Song
TTITLE8=Catch The Wind
TTITLE9=A Salty Dog
TTITLE10=Suzanne
TTITLE11=Like A Rock
TTITLE12=Wonderful World
TTITLE13=Crazy
EXTD=
EXTT0=
EXTT1=
EXTT2=
EXTT3=
EXTT4=
EXTT5=
EXTT6=
EXTT7=
EXTT8=
EXTT9=
EXTT10=
EXTT11=
EXTT12=
EXTT13=
PLAYORDER=
